<?xml version="1.0" encoding="utf-8"?>
<svg viewBox="233.282 78.443 809.371 272.158" width="809.371" height="272.158" xmlns="http://www.w3.org/2000/svg">
  <defs>
    <style type="text/css" id="style445">
      .st0{fill:#44A9F8;}
      .st1{fill:#29394C;}
    </style>
  </defs>
  <g id="g733" style="" transform="matrix(4.439775, 0, 0, 4.439775, 233.282123, 78.443208)">
    <title>Logo + Text</title>
    <g id="g696">
      <title>Logo</title>
      <path class="st0" d="M 41.2,0 0,21.6 16.1,29.7 V 49 L 41.2,61.3 66.3,49 V 29.7 l 16.1,-8.1 z m 18.4,44 -18.3,9 v 0 0 0 L 22.6,43.9 V 32.8 L 41.2,42.2 59.6,33 Z m -18.4,-9.4 -25.9,-13 25.9,-14 25.9,14 z" id="path449"/>
      <path class="st0" d="M 51.525 29.687 L 53.325 28.787 C 52.325 23.087 47.325 18.687 41.425 18.687 C 35.425 18.687 30.425 23.087 29.425 28.787 L 31.225 29.687 C 31.425 28.287 31.825 26.887 32.525 25.687 C 33.025 25.987 33.625 26.287 34.325 26.487 C 34.125 27.587 33.925 28.687 33.925 29.787 L 31.525 29.787 L 35.825 31.987 L 35.825 31.787 L 40.325 31.787 L 40.325 33.987 C 40.125 33.987 39.925 33.987 39.725 33.987 L 41.225 34.687 L 42.725 33.987 C 42.625 33.987 42.425 33.987 42.325 33.987 L 42.325 31.787 L 46.825 31.787 C 46.825 31.887 46.825 31.887 46.825 31.987 L 51.125 29.887 L 48.825 29.887 C 48.725 28.687 48.625 27.587 48.425 26.587 C 49.125 26.387 49.725 26.087 50.225 25.787 C 50.925 26.987 51.325 28.287 51.525 29.687 L 51.525 29.687 Z M 34.925 24.687 C 34.525 24.487 34.125 24.387 33.725 24.187 C 34.425 23.387 35.225 22.687 36.125 22.187 C 35.625 22.887 35.225 23.787 34.925 24.687 Z M 40.425 29.887 L 35.925 29.887 C 36.025 28.987 36.125 27.987 36.325 27.087 C 37.625 27.387 39.025 27.587 40.525 27.687 L 40.525 29.887 L 40.425 29.887 Z M 40.425 25.787 C 39.125 25.687 37.925 25.587 36.825 25.287 C 37.625 22.987 39.025 21.387 40.425 20.887 L 40.425 25.787 Z M 42.325 20.887 C 43.725 21.387 45.125 22.987 45.925 25.287 C 44.825 25.587 43.625 25.687 42.325 25.787 L 42.325 20.887 Z M 42.325 29.887 L 42.325 27.687 C 43.725 27.587 45.125 27.387 46.525 27.087 C 46.725 27.987 46.825 28.887 46.925 29.887 L 42.325 29.887 Z M 47.825 24.687 C 47.525 23.787 47.125 22.887 46.625 22.087 C 47.525 22.587 48.325 23.287 49.025 24.087 C 48.625 24.387 48.225 24.587 47.825 24.687 L 47.825 24.687 Z" id="path451"/>
    </g>
    <g id="g712">
      <title>Text</title>
      <g id="g469" transform="translate(-14.4,-74.7)">
        <title>SoftUni</title>
        <path class="st1" d="m 118.2,86.7 c -0.1,0.1 -0.3,0.4 -0.4,0.4 -0.1,0.1 -0.3,0.1 -0.6,0.1 -0.1,0 -0.4,0 -0.7,-0.1 -0.3,-0.1 -0.6,-0.3 -0.9,-0.4 -0.3,-0.1 -0.6,-0.3 -1,-0.4 -0.4,-0.1 -0.9,-0.1 -1.3,-0.1 -0.9,0 -1.5,0.1 -1.9,0.6 -0.4,0.4 -0.6,0.9 -0.6,1.5 0,0.4 0.1,0.7 0.4,1 0.3,0.3 0.6,0.4 1,0.7 0.4,0.1 0.9,0.4 1.5,0.6 0.6,0.2 1,0.3 1.6,0.6 0.6,0.1 1.2,0.4 1.6,0.7 0.6,0.3 1,0.6 1.5,1 0.4,0.4 0.7,0.9 1,1.5 0.3,0.6 0.4,1.3 0.4,2.2 0,0.9 -0.1,1.7 -0.4,2.6 -0.3,0.7 -0.7,1.5 -1.3,2 -0.6,0.6 -1.3,1 -2.2,1.5 -0.9,0.3 -1.9,0.4 -3,0.4 -0.6,0 -1.3,0 -1.9,-0.1 -0.6,-0.1 -1.3,-0.3 -1.9,-0.6 -0.6,-0.3 -1.2,-0.4 -1.7,-0.9 -0.6,-0.3 -1,-0.7 -1.3,-1 l 1.3,-2.2 c 0.1,-0.1 0.3,-0.3 0.4,-0.4 0.1,-0.1 0.4,-0.1 0.6,-0.1 0.3,0 0.6,0.1 0.9,0.3 0.3,0.1 0.6,0.3 0.9,0.6 0.3,0.1 0.7,0.4 1.2,0.6 0.5,0.2 1,0.3 1.6,0.3 0.9,0 1.5,-0.1 1.9,-0.6 0.4,-0.4 0.7,-1 0.7,-1.7 0,-0.4 -0.1,-0.9 -0.4,-1.2 -0.3,-0.3 -0.6,-0.6 -1,-0.7 -0.4,-0.1 -0.9,-0.3 -1.5,-0.4 -0.6,-0.1 -1,-0.3 -1.6,-0.4 -0.6,-0.1 -1,-0.4 -1.6,-0.6 -0.6,-0.3 -1,-0.6 -1.5,-1 -0.4,-0.4 -0.7,-0.9 -1,-1.6 -0.3,-0.6 -0.4,-1.5 -0.4,-2.3 0,-0.7 0.1,-1.5 0.4,-2.2 0.3,-0.7 0.7,-1.3 1.3,-1.9 0.6,-0.6 1.3,-1 2.2,-1.3 0.9,-0.3 1.7,-0.4 2.9,-0.4 0.6,0 1.2,0 1.7,0.1 0.6,0.1 1.2,0.3 1.6,0.4 0.6,0.1 1,0.4 1.5,0.7 0.4,0.3 0.9,0.6 1.2,0.9 z" id="path457"/>
        <path class="st1" d="m 128.3,88.1 c 1,0 2,0.1 2.9,0.4 0.9,0.3 1.6,0.9 2.3,1.5 0.6,0.6 1.2,1.3 1.5,2.3 0.3,0.9 0.6,1.9 0.6,3 0,1.2 -0.1,2.2 -0.6,3 -0.3,0.9 -0.9,1.6 -1.5,2.3 -0.6,0.6 -1.5,1.2 -2.3,1.5 -0.9,0.3 -1.9,0.4 -2.9,0.4 -1,0 -2,-0.1 -2.9,-0.4 -0.9,-0.3 -1.6,-0.9 -2.3,-1.5 -0.7,-0.6 -1.2,-1.5 -1.5,-2.3 -0.3,-0.8 -0.6,-1.9 -0.6,-3 0,-1.2 0.1,-2.2 0.6,-3 0.3,-0.9 0.9,-1.6 1.5,-2.3 0.6,-0.6 1.5,-1.2 2.3,-1.5 0.8,-0.2 1.8,-0.4 2.9,-0.4 z m 0,11.3 c 1,0 1.7,-0.3 2.2,-1 0.4,-0.7 0.7,-1.7 0.7,-3 0,-1.5 -0.3,-2.5 -0.7,-3 -0.4,-0.7 -1.2,-1 -2.2,-1 -1,0 -1.7,0.3 -2.2,1 -0.5,0.7 -0.7,1.7 -0.7,3 0,1.5 0.3,2.5 0.7,3 0.5,0.8 1.2,1 2.2,1 z" id="path459"/>
        <path class="st1" d="m 151.6,91.2 v 7 c 0,0.3 0.1,0.6 0.3,0.9 0.1,0.3 0.4,0.3 0.7,0.3 0.1,0 0.3,0 0.4,0 0.1,0 0.1,0 0.3,-0.1 0.1,0 0.1,-0.1 0.3,-0.1 0,0 0.1,0 0.3,0 0.1,0 0.3,0 0.3,0.1 0.1,0 0.1,0.1 0.3,0.3 l 1.3,2 c -0.6,0.4 -1.2,0.7 -1.9,0.9 -0.7,0.2 -1.3,0.3 -2,0.3 -0.7,0 -1.3,-0.1 -1.7,-0.3 -0.6,-0.1 -0.9,-0.4 -1.3,-0.9 -0.3,-0.3 -0.6,-0.7 -0.7,-1.3 -0.1,-0.4 -0.3,-1 -0.3,-1.7 V 91.3 H 143 v 11.2 h -4.6 V 91.2 l -0.9,-0.1 c -0.3,-0.1 -0.6,-0.1 -0.7,-0.3 -0.1,-0.1 -0.3,-0.4 -0.3,-0.7 v -1.6 h 1.9 v -0.9 c 0,-0.9 0.1,-1.6 0.4,-2.2 0.3,-0.6 0.6,-1.2 1.2,-1.6 0.4,-0.4 1,-0.9 1.7,-1 0.7,-0.3 1.5,-0.4 2.3,-0.4 0.3,0 0.7,0 1,0 0.3,0 0.6,0.1 0.9,0.1 l -0.1,2 c 0,0.1 0,0.3 -0.1,0.3 0,0.1 -0.1,0.1 -0.3,0.3 -0.1,0 -0.1,0.1 -0.3,0.1 -0.2,0 -0.3,0 -0.3,0 -0.4,0 -0.7,0 -1,0.1 -0.3,0.1 -0.6,0.1 -0.7,0.4 -0.1,0.1 -0.3,0.4 -0.4,0.7 -0.1,0.3 -0.1,0.7 -0.1,1.2 v 0.7 h 5.4 l 0.9,-3.5 c 0.1,-0.4 0.4,-0.6 0.9,-0.6 h 2.2 v 4.1 h 3.5 v 2.9 H 152 v 0 z" id="path461"/>
        <path class="st1" d="m 165.4,98.7 c 0.6,0 1.2,-0.1 1.6,-0.3 0.4,-0.1 0.9,-0.4 1.2,-0.9 0.3,-0.4 0.6,-0.9 0.7,-1.5 0.1,-0.6 0.3,-1.2 0.3,-1.9 V 82.5 h 4.6 v 11.8 c 0,1.2 -0.1,2.3 -0.6,3.3 -0.4,1 -1,1.9 -1.7,2.6 -0.7,0.7 -1.6,1.3 -2.6,1.7 -1,0.4 -2.2,0.6 -3.5,0.6 -1.3,0 -2.5,-0.1 -3.5,-0.6 -1,-0.4 -1.9,-1 -2.6,-1.7 -0.7,-0.7 -1.3,-1.6 -1.7,-2.6 -0.4,-1 -0.6,-2.2 -0.6,-3.3 V 82.5 h 4.6 v 11.6 c 0,0.7 0.1,1.3 0.3,1.9 0.1,0.6 0.4,1 0.7,1.5 0.3,0.4 0.7,0.7 1.2,0.9 0.4,0.2 1,0.3 1.6,0.3 z" id="path463"/>
        <path class="st1" d="m 180.4,89.9 c 0.3,-0.3 0.6,-0.4 0.9,-0.7 0.3,-0.1 0.6,-0.4 0.9,-0.6 0.3,-0.1 0.7,-0.3 1,-0.3 0.4,-0.1 0.9,-0.1 1.3,-0.1 0.7,0 1.5,0.1 2,0.4 0.6,0.3 1.2,0.6 1.5,1.2 0.4,0.4 0.7,1 0.9,1.7 0.1,0.7 0.3,1.3 0.3,2.2 v 8.9 H 185 v -8.9 c 0,-0.7 -0.1,-1.2 -0.4,-1.6 -0.3,-0.4 -0.7,-0.6 -1.5,-0.6 -0.4,0 -0.9,0.1 -1.3,0.3 -0.4,0.1 -0.7,0.4 -1.2,0.7 v 10 h -4.2 V 88.4 h 2.6 c 0.6,0 0.9,0.3 1,0.7 z" id="path465"/>
        <path class="st1" d="m 196.7,84.5 c 0,0.3 0,0.6 -0.1,0.9 -0.1,0.3 -0.3,0.6 -0.6,0.7 -0.3,0.3 -0.6,0.4 -0.9,0.6 -0.3,0.1 -0.6,0.1 -1,0.1 -0.3,0 -0.7,0 -1,-0.1 -0.3,-0.1 -0.6,-0.3 -0.7,-0.6 -0.3,-0.3 -0.4,-0.4 -0.6,-0.7 -0.1,-0.3 -0.1,-0.6 -0.1,-0.9 0,-0.3 0,-0.7 0.1,-1 0.1,-0.3 0.3,-0.6 0.6,-0.7 0.3,-0.3 0.4,-0.4 0.7,-0.6 0.3,-0.1 0.6,-0.1 1,-0.1 0.3,0 0.7,0 1,0.1 0.3,0.1 0.6,0.3 0.9,0.6 0.3,0.3 0.4,0.4 0.6,0.7 0,0.3 0.1,0.6 0.1,1 z m -0.4,3.8 v 14.1 h -4.2 V 88.3 Z" id="path467"/>
      </g>
      <g id="g483" transform="translate(-14.4,-74.7)">
        <title>Global</title>
        <path class="st1" d="m 117.4,116.4 h 7.1 v 8.4 c -1,0.7 -2.1,1.3 -3.2,1.6 -1.1,0.3 -2.3,0.5 -3.6,0.5 -1.6,0 -3.1,-0.3 -4.5,-0.8 -1.3,-0.5 -2.5,-1.2 -3.4,-2.1 -1,-0.9 -1.7,-2 -2.2,-3.2 -0.5,-1.2 -0.8,-2.6 -0.8,-4 0,-1.5 0.2,-2.8 0.7,-4.1 0.5,-1.2 1.2,-2.3 2.1,-3.2 0.9,-0.9 2,-1.6 3.3,-2.1 1.3,-0.5 2.7,-0.7 4.3,-0.7 0.8,0 1.6,0.1 2.3,0.2 0.7,0.1 1.4,0.3 2,0.6 0.6,0.2 1.2,0.5 1.7,0.8 0.5,0.3 1,0.7 1.4,1.1 l -1.3,2 c -0.2,0.3 -0.5,0.5 -0.8,0.6 -0.3,0.1 -0.7,0 -1.1,-0.2 -0.4,-0.2 -0.7,-0.4 -1,-0.6 -0.3,-0.2 -0.7,-0.3 -1,-0.4 -0.3,-0.1 -0.7,-0.2 -1.1,-0.2 -0.4,0 -0.8,-0.1 -1.3,-0.1 -0.9,0 -1.6,0.2 -2.3,0.5 -0.7,0.3 -1.3,0.7 -1.8,1.3 -0.5,0.6 -0.9,1.2 -1.1,2 -0.3,0.8 -0.4,1.6 -0.4,2.6 0,1.1 0.1,2 0.4,2.8 0.3,0.8 0.7,1.5 1.2,2.1 0.5,0.6 1.2,1 1.9,1.3 0.7,0.3 1.6,0.4 2.5,0.4 0.6,0 1.1,-0.1 1.5,-0.2 0.4,-0.1 0.9,-0.3 1.3,-0.4 v -3 h -2 c -0.3,0 -0.5,-0.1 -0.7,-0.2 -0.2,-0.2 -0.2,-0.3 -0.2,-0.6 v -2.7 z" id="path471"/>
        <path class="st1" d="m 131.3,106.3 v 20.4 h -4.2 v -20.4 z" id="path473"/>
        <path class="st1" d="m 140.7,112.4 c 1.1,0 2,0.2 2.9,0.5 0.9,0.3 1.6,0.8 2.3,1.4 0.6,0.6 1.1,1.4 1.5,2.3 0.4,0.9 0.5,1.9 0.5,3 0,1.1 -0.2,2.1 -0.5,3 -0.3,0.9 -0.8,1.7 -1.5,2.3 -0.6,0.6 -1.4,1.1 -2.3,1.5 -0.9,0.4 -1.9,0.5 -2.9,0.5 -1.1,0 -2.1,-0.2 -2.9,-0.5 -0.8,-0.3 -1.6,-0.8 -2.3,-1.5 -0.6,-0.6 -1.1,-1.4 -1.5,-2.3 -0.3,-0.9 -0.5,-1.9 -0.5,-3 0,-1.1 0.2,-2.1 0.5,-3 0.3,-0.9 0.8,-1.7 1.5,-2.3 0.6,-0.6 1.4,-1.1 2.3,-1.4 0.9,-0.3 1.8,-0.5 2.9,-0.5 z m 0,11.4 c 1,0 1.7,-0.3 2.1,-1 0.5,-0.7 0.7,-1.7 0.7,-3.1 0,-1.4 -0.2,-2.4 -0.7,-3.1 -0.5,-0.7 -1.2,-1 -2.1,-1 -1,0 -1.7,0.3 -2.2,1 -0.5,0.7 -0.7,1.7 -0.7,3.1 0,1.4 0.2,2.4 0.7,3.1 0.5,0.7 1.2,1 2.2,1 z" id="path475"/>
        <path class="st1" d="m 154.2,114.1 c 0.5,-0.5 1.1,-0.9 1.8,-1.2 0.6,-0.3 1.4,-0.5 2.2,-0.5 0.8,0 1.5,0.2 2.2,0.5 0.7,0.3 1.2,0.8 1.7,1.4 0.5,0.6 0.8,1.3 1.1,2.2 0.2,0.9 0.4,1.8 0.4,2.9 0,1.1 -0.1,2.2 -0.4,3.1 -0.3,0.9 -0.7,1.7 -1.2,2.4 -0.5,0.7 -1.2,1.2 -1.9,1.6 -0.7,0.4 -1.5,0.6 -2.4,0.6 -0.4,0 -0.8,0 -1.1,-0.1 -0.3,-0.1 -0.6,-0.2 -0.9,-0.3 -0.3,-0.1 -0.5,-0.3 -0.8,-0.5 -0.3,-0.2 -0.5,-0.4 -0.7,-0.7 l -0.1,0.7 c -0.1,0.3 -0.2,0.5 -0.4,0.6 -0.2,0.1 -0.4,0.2 -0.7,0.2 h -3 v -20.4 h 4.2 z m 0,8.8 c 0.3,0.3 0.7,0.6 1,0.7 0.4,0.1 0.8,0.2 1.1,0.2 0.4,0 0.8,-0.1 1.1,-0.2 0.3,-0.2 0.6,-0.4 0.9,-0.7 0.2,-0.3 0.4,-0.8 0.6,-1.3 0.1,-0.6 0.2,-1.2 0.2,-2.1 0,-0.7 -0.1,-1.3 -0.2,-1.8 -0.1,-0.5 -0.3,-0.9 -0.5,-1.2 -0.2,-0.3 -0.5,-0.5 -0.8,-0.7 -0.3,-0.1 -0.7,-0.2 -1,-0.2 -0.5,0 -1,0.1 -1.3,0.3 -0.4,0.2 -0.8,0.6 -1.1,1 z" id="path477"/>
        <path class="st1" d="m 165.3,114.6 c 0.9,-0.8 1.8,-1.3 2.8,-1.7 1,-0.4 2.2,-0.6 3.3,-0.6 0.9,0 1.6,0.1 2.3,0.4 0.7,0.3 1.3,0.7 1.7,1.2 0.5,0.5 0.8,1.1 1.1,1.8 0.3,0.7 0.4,1.4 0.4,2.2 v 8.8 H 175 c -0.4,0 -0.7,-0.1 -0.9,-0.2 -0.2,-0.1 -0.4,-0.3 -0.5,-0.7 l -0.3,-0.8 c -0.4,0.3 -0.7,0.6 -1,0.8 -0.3,0.2 -0.7,0.4 -1,0.6 -0.3,0.2 -0.7,0.3 -1.1,0.4 -0.4,0.1 -0.8,0.1 -1.3,0.1 -0.6,0 -1.2,-0.1 -1.8,-0.3 -0.5,-0.2 -1,-0.4 -1.3,-0.7 -0.4,-0.3 -0.7,-0.7 -0.9,-1.2 -0.2,-0.5 -0.3,-1 -0.3,-1.7 0,-0.5 0.1,-1 0.4,-1.5 0.3,-0.5 0.7,-1 1.3,-1.4 0.6,-0.4 1.5,-0.8 2.5,-1.1 1.1,-0.3 2.4,-0.5 4,-0.5 v -0.6 c 0,-0.8 -0.2,-1.4 -0.5,-1.8 -0.3,-0.4 -0.8,-0.6 -1.5,-0.6 -0.5,0 -0.9,0.1 -1.2,0.2 -0.3,0.1 -0.6,0.2 -0.9,0.4 -0.2,0.1 -0.5,0.3 -0.7,0.4 -0.2,0.1 -0.5,0.2 -0.8,0.2 -0.3,0 -0.5,-0.1 -0.7,-0.2 -0.2,-0.1 -0.4,-0.3 -0.5,-0.5 z m 7.6,6.4 c -0.8,0 -1.5,0.1 -2.1,0.2 -0.5,0.1 -1,0.2 -1.3,0.4 -0.3,0.2 -0.5,0.3 -0.7,0.6 -0.1,0.2 -0.2,0.4 -0.2,0.7 0,0.5 0.1,0.8 0.4,1 0.3,0.2 0.6,0.3 1.2,0.3 0.5,0 1,-0.1 1.4,-0.3 0.4,-0.2 0.8,-0.5 1.2,-0.9 v -2 z" id="path479"/>
        <path class="st1" d="m 184,106.3 v 20.4 h -4.2 v -20.4 z" id="path481"/>
      </g>
    </g>
  </g>
</svg>