<svg width="519" height="608" viewBox="0 0 519 608" fill="none" xmlns="http://www.w3.org/2000/svg">
<path d="M259.332 0L0 135.973L101.375 186.921V309.061L259.332 386.326L417.625 309.061V187.259L519 136.311L259.332 0ZM375.189 278.02L259.668 334.704H259.332L142.127 277.345V207.503L259.668 266.886L375.189 208.852V278.02ZM259.332 218.3L95.9864 136.648L259.332 48.2486L422.677 136.648L259.332 218.3Z" fill="#44A9F8"/>
<path d="M330.732 188.271L343.53 181.86C336.794 141.709 301.768 111.343 260.005 111.343C218.243 111.343 183.216 142.046 176.48 181.86L189.278 188.271C190.289 178.486 193.657 168.701 198.372 160.266C202.077 162.291 206.455 164.315 210.833 166.002C209.149 173.425 208.139 181.185 207.802 189.283H191.299L221.611 204.466V202.779H253.269V218.3C251.922 218.3 250.575 218.3 249.228 218.637L259.332 223.698L269.772 218.637C268.762 218.637 267.751 218.637 266.741 218.637V203.116H298.4C298.4 203.454 298.4 204.129 298.4 204.466L328.038 189.62H311.872C311.535 181.523 310.524 173.762 308.84 166.339C313.555 164.652 317.597 162.628 321.302 160.604C326.354 168.701 329.385 178.486 330.732 188.271ZM214.538 152.843C211.507 151.831 208.812 150.482 206.118 149.132C210.833 143.733 216.896 138.672 222.958 134.961C219.927 140.359 216.896 146.433 214.538 152.843ZM252.933 189.62H221.274C221.611 182.872 222.621 176.462 223.968 170.388C233.062 172.75 242.829 174.1 252.933 174.437V189.62ZM252.933 160.604C244.176 160.266 235.756 158.917 227.673 157.23C233.735 141.034 242.829 129.9 252.933 126.189V160.604ZM266.741 126.189C276.845 129.563 285.938 141.034 292.001 157.23C283.918 159.254 275.498 160.266 266.741 160.604V126.189ZM266.741 189.62V174.1C276.845 173.762 286.612 172.413 295.705 170.051C297.053 176.124 298.063 182.872 298.4 189.283H266.741V189.62ZM305.136 152.843C302.778 146.095 299.747 140.359 296.379 134.961C302.778 138.672 308.504 143.733 313.219 149.132C310.861 150.482 308.167 151.831 305.136 152.843Z" fill="#44A9F8"/>
<path d="M120.572 438.961C119.899 439.636 119.225 440.648 118.888 440.648C118.215 441.323 117.541 441.323 116.531 441.323C115.857 441.323 114.847 441.323 113.5 440.648C112.152 439.973 111.142 439.298 109.795 438.961C108.448 438.286 107.437 437.611 105.417 437.274C103.733 436.599 101.712 436.599 100.028 436.599C96.3231 436.599 93.9655 437.274 92.2815 438.961C90.5976 440.648 89.924 442.672 89.924 445.034C89.924 446.721 90.5976 448.071 91.6079 449.42C92.9551 450.77 93.9655 451.107 95.9863 452.457C97.6702 453.132 99.691 454.144 102.049 454.819C104.406 455.494 106.427 456.169 108.784 457.181C111.142 457.856 113.5 458.868 115.52 460.217C117.878 461.567 119.899 462.579 121.583 464.604C123.267 466.291 124.614 468.315 125.961 470.677C127.308 473.039 127.645 476.075 127.645 479.787C127.645 483.498 126.971 487.21 125.961 490.921C124.614 493.958 122.93 496.994 120.572 499.356C118.215 501.718 115.184 503.742 111.479 505.429C107.774 506.779 103.733 507.116 98.6806 507.116C96.3231 507.116 93.2919 507.116 90.9343 506.442C88.5768 505.767 85.5456 505.092 83.1881 504.08C80.8305 502.73 78.473 502.393 75.7786 500.368C73.421 499.019 71.4003 497.332 70.3899 495.982L75.7786 486.872C76.4522 486.197 77.1258 485.523 77.4626 485.185C78.1362 484.51 79.1465 484.51 79.8201 484.51C81.1673 484.51 82.1777 485.185 83.5249 485.86C84.872 486.535 85.8824 487.21 87.2296 488.222C88.5768 488.897 90.2608 489.909 91.9447 490.584C93.6287 491.258 96.3231 491.933 98.6806 491.933C102.385 491.933 104.743 491.258 106.427 489.571C108.111 487.884 109.458 485.185 109.458 482.149C109.458 480.462 108.784 478.437 107.774 477.425C106.427 476.075 105.417 475.063 103.396 474.388C101.375 473.713 99.691 473.039 97.3334 472.701C94.9759 472.026 92.9551 471.352 90.5976 471.014C88.24 470.339 86.2192 469.327 83.8617 468.652C81.5041 467.303 79.4833 466.291 77.7994 464.266C76.1154 462.579 74.7682 460.555 73.421 457.518C72.0739 455.156 71.7371 451.445 71.7371 447.733C71.7371 444.697 72.4107 441.66 73.421 438.624C74.7682 435.587 76.4522 433.225 78.8098 430.863C81.1673 428.501 84.1985 426.477 87.9032 425.465C91.6079 424.115 95.3127 423.778 100.028 423.778C102.385 423.778 104.743 423.778 107.437 424.453C109.795 425.127 112.152 425.802 114.173 426.14C116.531 426.814 118.551 427.827 120.235 429.176C121.919 430.526 123.94 431.538 124.951 432.888L120.572 438.961Z" fill="#29394C"/>
<path d="M163.008 445.034C167.387 445.034 171.428 445.709 175.133 446.721C178.838 448.071 181.869 450.433 184.9 452.794C187.257 455.156 189.615 458.193 190.962 462.579C192.309 466.291 193.32 470.339 193.32 475.4C193.32 480.462 192.646 484.51 190.962 488.222C189.615 491.933 187.257 494.97 184.9 498.006C182.542 500.368 178.838 502.73 175.133 504.08C171.428 505.429 167.387 505.767 163.008 505.767C158.63 505.767 154.588 505.092 150.884 504.08C147.179 502.73 144.148 500.368 141.117 498.006C138.085 495.645 136.402 491.933 135.054 488.222C133.707 484.51 132.697 480.462 132.697 475.4C132.697 470.339 133.37 466.291 135.054 462.579C136.402 458.868 138.759 455.831 141.117 452.794C143.474 450.433 147.179 448.071 150.884 446.721C153.915 445.709 158.293 445.034 163.008 445.034ZM163.008 492.608C167.387 492.608 170.418 491.258 172.102 488.222C173.786 485.185 175.133 480.799 175.133 475.4C175.133 469.327 173.786 464.941 172.102 462.579C170.418 459.543 167.387 458.193 163.008 458.193C158.63 458.193 155.599 459.543 153.915 462.579C152.231 465.616 150.884 470.002 150.884 475.4C150.884 481.474 152.231 485.86 153.915 488.222C155.599 491.258 158.63 492.608 163.008 492.608Z" fill="#29394C"/>
<path d="M260.342 457.856V487.21C260.342 488.559 261.016 489.571 261.689 490.921C262.363 492.271 263.373 492.271 264.72 492.271C265.394 492.271 266.067 492.271 266.404 492.271C266.741 492.271 267.078 492.271 267.751 491.596C268.425 491.596 268.425 490.921 269.099 490.921C269.099 490.921 269.772 490.921 270.446 490.921C271.119 490.921 271.793 490.921 271.793 491.596C272.467 491.596 272.467 492.271 273.14 492.945L278.529 501.38C276.171 503.068 273.814 504.417 270.783 505.092C267.751 505.767 265.394 506.442 262.363 506.442C259.332 506.442 256.974 505.767 254.953 505.092C252.596 504.417 251.249 503.405 249.565 501.38C248.217 500.031 247.207 498.344 246.533 495.982C245.86 494.295 245.186 491.596 245.186 488.559V458.193H224.642V505.092H205.108V458.193L201.403 457.518C200.056 456.843 199.045 456.843 198.372 456.169C197.698 455.494 197.025 454.481 197.025 453.132V446.384H204.771V442.672C204.771 438.961 205.444 435.924 206.455 433.563C207.465 431.201 208.812 428.839 211.17 426.814C212.854 425.127 215.548 423.103 218.579 422.428C221.611 421.079 224.642 420.741 228.347 420.741C229.694 420.741 231.378 420.741 232.725 420.741C234.072 420.741 235.082 421.416 236.43 421.416L235.756 429.851C235.756 430.526 235.756 431.201 235.082 431.201C235.082 431.875 234.409 431.876 233.735 432.55C233.062 432.55 233.062 433.225 232.388 433.225C231.714 433.225 231.041 433.225 231.041 433.225C229.357 433.225 228.01 433.225 226.663 433.9C225.315 434.575 224.305 434.575 223.631 435.587C222.958 436.262 222.284 437.274 221.947 438.624C221.274 439.973 221.274 441.66 221.274 443.347V446.384H243.839L247.544 431.876C248.217 430.189 249.228 429.514 251.249 429.514H260.342V446.721H274.824V458.868H260.342V457.856Z" fill="#29394C"/>
<path d="M318.27 489.571C320.628 489.571 322.986 488.897 325.006 488.222C326.69 487.547 328.711 486.535 329.721 484.51C331.069 482.823 332.079 480.799 332.753 478.437C333.426 476.075 334.1 473.713 334.1 470.677V421.416H353.634V470.677C353.634 475.401 352.96 480.462 351.276 484.848C349.592 489.234 346.898 492.608 343.867 495.982C340.836 499.019 337.131 501.381 332.753 503.405C328.374 505.092 323.659 505.767 318.27 505.767C312.882 505.767 307.83 505.092 303.788 503.405C299.41 501.718 296.042 499.019 292.674 495.982C289.643 492.945 287.285 489.234 285.265 484.848C283.581 480.462 282.907 475.738 282.907 470.677V421.416H302.441V470.339C302.441 473.376 303.115 475.738 303.788 478.1C304.462 480.462 305.472 482.486 306.819 484.173C308.167 485.86 309.851 487.21 311.535 487.884C313.218 488.897 315.913 489.571 318.27 489.571Z" fill="#29394C"/>
<path d="M381.588 452.457C382.935 451.107 383.945 450.77 385.293 449.42C386.64 448.746 387.65 447.733 388.997 447.059C390.344 446.384 392.028 445.709 393.376 445.709C395.06 445.034 397.08 445.034 398.764 445.034C401.795 445.034 404.827 445.709 407.184 446.721C409.542 448.071 411.899 449.083 413.246 451.445C414.93 453.132 416.278 455.831 416.951 458.868C417.625 461.904 418.298 464.266 418.298 467.978V505.092H400.785V467.978C400.785 464.941 400.111 463.254 399.101 461.23C398.091 459.205 396.07 458.868 393.039 458.868C391.355 458.868 389.334 459.543 387.65 460.217C385.966 460.892 384.619 461.904 382.935 463.254V505.429H364.411V446.384H375.525C377.883 446.384 379.23 447.733 379.904 449.42L381.588 452.457Z" fill="#29394C"/>
<path d="M449.62 429.851C449.62 431.201 449.62 432.213 448.947 433.563C448.273 434.912 447.599 435.924 446.589 436.599C445.242 437.949 444.232 438.286 442.884 438.961C441.537 439.636 440.527 439.636 438.506 439.636C437.159 439.636 435.475 439.636 434.128 438.961C432.781 438.286 431.77 437.611 431.097 436.599C429.749 435.25 429.413 434.912 428.739 433.563C428.065 432.213 428.065 431.201 428.065 429.851C428.065 428.502 428.065 426.814 428.739 425.465C429.413 424.115 430.086 423.103 431.097 422.428C432.444 421.079 432.781 420.741 434.128 420.066C435.475 419.392 436.485 419.392 438.506 419.392C439.853 419.392 441.537 419.392 442.884 420.066C444.232 420.741 445.242 421.416 446.589 422.428C447.936 423.778 448.273 424.115 448.947 425.465C448.947 426.814 449.62 427.827 449.62 429.851ZM447.936 445.709V504.755H430.423V445.709H447.936Z" fill="#29394C"/>
<path d="M142.464 563.8H172.102V598.89C167.724 601.927 163.345 604.289 158.63 605.638C153.915 606.988 148.863 607.663 143.474 607.663C136.739 607.663 130.339 606.651 124.614 604.289C118.888 602.264 114.173 599.228 110.132 595.516C106.09 591.805 103.059 587.081 101.038 582.02C99.0176 576.959 97.6704 571.223 97.6704 565.15C97.6704 559.077 98.6808 553.341 100.702 547.942C102.722 542.544 105.753 538.158 109.458 534.446C113.163 530.735 117.878 527.698 123.267 525.674C128.655 523.649 134.718 522.637 141.454 522.637C144.822 522.637 148.19 522.975 151.221 523.649C154.252 524.324 156.946 524.999 159.641 526.011C162.335 527.023 164.692 528.036 166.713 529.723C168.734 531.072 170.755 532.422 172.439 534.109L166.713 542.544C165.703 543.894 164.692 544.568 163.345 544.906C161.998 545.243 160.314 544.906 158.967 543.894C157.283 542.881 155.936 542.207 154.589 541.532C153.241 540.857 151.894 540.182 150.547 539.845C149.2 539.507 147.516 539.17 146.169 538.833C144.485 538.495 142.801 538.495 140.78 538.495C137.075 538.495 134.044 539.17 131.013 540.52C127.982 541.869 125.624 543.556 123.604 545.918C121.583 548.28 119.899 550.979 118.888 554.353C117.878 557.727 117.204 561.101 117.204 565.15C117.204 569.536 117.878 573.585 118.888 576.959C119.899 580.333 121.92 583.37 123.94 585.732C125.961 588.093 128.992 589.78 132.023 591.13C135.055 592.48 138.423 593.154 142.464 593.154C144.822 593.154 146.842 592.817 148.863 592.48C150.884 592.142 152.568 591.467 154.252 590.793V578.309H146.169C144.822 578.309 144.148 577.971 143.474 577.296C142.801 576.622 142.464 575.947 142.464 574.935V563.8Z" fill="#29394C"/>
<path d="M200.73 521.288V606.988H182.879V521.288H200.73Z" fill="#29394C"/>
<path d="M239.798 546.93C244.176 546.93 248.217 547.605 251.922 548.955C255.627 550.304 258.658 552.329 261.352 555.028C264.047 557.727 266.068 560.764 267.415 564.475C268.762 568.187 269.772 572.573 269.772 577.296C269.772 582.02 269.099 586.406 267.415 590.118C266.068 593.829 264.047 597.203 261.352 599.902C258.658 602.602 255.627 604.626 251.922 605.976C248.217 607.325 244.176 608 239.798 608C235.419 608 231.041 607.325 227.336 605.976C223.631 604.626 220.264 602.602 217.906 599.902C215.212 597.203 213.191 594.167 211.844 590.118C210.496 586.406 209.486 582.02 209.486 577.296C209.486 572.573 210.16 568.524 211.844 564.475C213.191 560.764 215.548 557.39 217.906 555.028C220.6 552.329 223.631 550.304 227.336 548.955C231.041 547.605 235.419 546.93 239.798 546.93ZM239.798 594.841C243.839 594.841 246.87 593.492 248.891 590.455C250.912 587.419 251.922 583.032 251.922 577.296C251.922 571.561 250.912 567.174 248.891 564.138C246.87 561.439 243.839 559.751 239.798 559.751C235.756 559.751 232.388 561.101 230.704 564.138C228.683 566.837 227.673 571.223 227.673 577.296C227.673 583.032 228.683 587.419 230.704 590.455C232.725 593.492 235.756 594.841 239.798 594.841Z" fill="#29394C"/>
<path d="M296.716 554.016C299.074 551.991 301.431 549.967 304.125 548.617C306.82 547.268 309.851 546.593 313.219 546.593C316.587 546.593 319.618 547.268 322.312 548.617C325.007 549.967 327.364 551.991 329.385 554.353C331.406 557.052 332.753 560.089 333.763 563.463C334.774 566.837 335.447 570.886 335.447 575.609C335.447 580.333 334.774 584.719 333.763 588.768C332.416 592.817 330.732 596.191 328.711 598.89C326.354 601.59 323.659 603.951 320.628 605.301C317.597 606.988 314.229 607.663 310.524 607.663C308.841 607.663 307.157 607.325 305.809 606.988C304.462 606.651 303.115 606.313 301.768 605.638C300.421 604.964 299.41 604.289 298.4 603.276C297.39 602.264 296.379 601.59 295.706 600.577L295.032 603.614C294.695 604.964 294.358 605.638 293.685 605.976C293.011 606.313 292.001 606.651 290.99 606.651H279.203V520.95H297.053V554.016H296.716ZM296.716 590.793C298.063 592.142 299.41 593.154 301.094 593.829C302.778 594.504 304.125 594.841 305.809 594.841C307.493 594.841 309.177 594.504 310.524 593.829C311.872 593.154 313.219 592.142 314.229 590.793C315.24 589.443 315.913 587.419 316.587 585.057C317.26 582.695 317.597 579.658 317.597 576.284C317.597 573.248 317.26 570.886 316.924 568.861C316.587 566.837 315.913 565.15 314.903 563.8C313.892 562.451 312.882 561.439 311.872 561.101C310.525 560.426 309.177 560.089 307.493 560.089C305.473 560.089 303.452 560.426 301.768 561.439C300.084 562.451 298.737 563.8 297.053 565.487V590.793H296.716Z" fill="#29394C"/>
<path d="M343.193 556.04C346.898 553.003 350.603 550.642 354.981 548.955C359.36 547.268 364.075 546.593 369.127 546.593C372.831 546.593 375.862 547.268 378.894 548.28C381.925 549.292 384.282 550.979 386.303 553.003C388.324 555.028 389.671 557.39 391.018 560.426C392.365 563.463 392.702 566.5 392.702 569.874V606.988H384.619C382.935 606.988 381.588 606.65 380.914 606.313C379.904 605.976 379.23 604.963 378.894 603.614L377.546 600.24C376.199 601.589 374.515 602.602 373.168 603.614C371.821 604.626 370.474 605.301 368.79 605.976C367.443 606.65 365.759 606.988 364.075 607.325C362.391 607.663 360.707 607.663 358.686 607.663C355.992 607.663 353.634 607.325 351.276 606.65C348.919 605.976 347.235 604.963 345.551 603.614C343.867 602.264 342.857 600.577 341.846 598.553C341.173 596.528 340.499 594.167 340.499 591.467C340.499 589.443 341.173 587.081 342.183 585.057C343.193 583.032 345.214 581.008 347.572 578.983C350.266 577.296 353.634 575.609 358.349 574.597C362.727 573.248 368.453 572.573 375.189 572.573V569.874C375.189 566.5 374.515 563.8 373.168 562.451C371.821 561.101 369.8 560.089 367.106 560.089C365.085 560.089 363.401 560.426 362.054 560.764C360.707 561.101 359.696 561.776 358.349 562.451C357.339 563.126 356.328 563.463 355.318 564.138C354.308 564.813 353.297 564.813 351.613 564.813C350.266 564.813 349.256 564.475 348.582 563.8C347.909 563.125 346.898 562.451 346.561 561.776L343.193 556.04ZM375.189 583.032C371.484 583.032 368.79 583.37 366.432 584.044C364.075 584.382 362.391 585.057 361.043 585.731C359.696 586.406 358.686 587.081 358.349 588.093C357.676 589.105 357.676 589.78 357.676 590.793C357.676 592.817 358.349 594.167 359.36 595.179C360.37 595.854 362.054 596.528 364.075 596.528C366.432 596.528 368.453 596.191 370.137 595.179C371.821 594.167 373.505 593.154 375.189 591.13V583.032Z" fill="#29394C"/>
<path d="M421.33 521.288V606.988H403.48V521.288H421.33Z" fill="#29394C"/>
</svg>
